<?xml version="1.0" standalone="no"?>
<!DOCTYPE svg PUBLIC "-//W3C//DTD SVG 20010904//EN"
 "http://www.w3.org/TR/2001/REC-SVG-20010904/DTD/svg10.dtd">
<svg version="1.0" xmlns="http://www.w3.org/2000/svg"
 width="3508.000000pt" height="3508.000000pt" viewBox="0 0 3508.000000 3508.000000"
 preserveAspectRatio="xMidYMid meet">
<metadata>
Created by potrace 1.11, written by Peter Selinger 2001-2013
</metadata>
<g transform="translate(0.000000,3508.000000) scale(0.100000,-0.100000)"
fill="#000000" stroke="none">
<path d="M15210 26031 c-5 -11 -10 -27 -10 -36 0 -9 -11 -37 -25 -63 -14 -26
-25 -54 -25 -62 0 -8 -12 -33 -25 -55 -14 -22 -25 -50 -25 -61 0 -12 -8 -32
-19 -45 -10 -13 -22 -40 -26 -59 -4 -19 -16 -46 -26 -59 -11 -13 -19 -33 -19
-45 0 -11 -11 -39 -25 -61 -13 -22 -25 -48 -25 -58 0 -10 -11 -37 -24 -60 -13
-23 -27 -56 -31 -74 -3 -17 -12 -37 -20 -43 -7 -6 -19 -33 -25 -61 -7 -28 -20
-54 -30 -59 -33 -18 -136 -11 -212 14 -41 13 -114 26 -166 30 -54 4 -115 15
-143 27 -33 12 -88 21 -157 26 -62 3 -132 14 -167 25 -34 12 -111 24 -180 29
-66 4 -150 17 -188 28 -37 11 -116 23 -175 26 -59 4 -145 16 -191 27 -45 11
-147 24 -225 28 -77 5 -184 17 -236 28 -58 13 -157 23 -255 27 -88 3 -212 15
-275 25 -161 26 -232 29 -780 36 -608 7 -1122 -7 -1230 -34 -41 -11 -129 -23
-194 -27 -74 -4 -140 -15 -175 -26 -31 -11 -96 -24 -146 -29 -49 -4 -110 -17
-135 -28 -25 -11 -74 -23 -110 -27 -36 -3 -80 -15 -99 -26 -19 -11 -57 -23
-85 -26 -28 -3 -67 -14 -86 -25 -19 -11 -58 -24 -87 -28 -30 -5 -66 -18 -81
-29 -15 -10 -46 -22 -67 -26 -22 -4 -52 -15 -67 -26 -15 -10 -45 -23 -68 -28
-23 -5 -49 -16 -59 -25 -10 -9 -40 -23 -68 -31 -28 -8 -56 -22 -63 -30 -7 -8
-27 -17 -45 -21 -19 -3 -41 -14 -51 -25 -9 -10 -33 -23 -53 -30 -20 -6 -45
-19 -56 -29 -11 -10 -31 -21 -45 -25 -14 -4 -38 -18 -53 -31 -16 -13 -35 -24
-42 -24 -7 0 -27 -11 -43 -25 -17 -14 -35 -25 -41 -25 -5 0 -26 -13 -44 -30
-19 -16 -40 -30 -46 -30 -6 0 -20 -9 -30 -19 -11 -11 -33 -27 -48 -36 -15 -8
-48 -31 -73 -50 -25 -20 -59 -44 -77 -56 -17 -11 -34 -26 -37 -34 -3 -8 -11
-15 -17 -15 -6 0 -30 -16 -53 -35 -22 -20 -53 -45 -69 -58 -85 -69 -135 -113
-232 -204 -44 -41 -90 -79 -103 -84 -13 -5 -121 -9 -241 -9 -165 0 -221 -3
-229 -13 -7 -8 -12 -104 -14 -255 -3 -234 -4 -242 -25 -264 -33 -34 -72 -78
-123 -138 -25 -29 -56 -65 -70 -79 -13 -14 -58 -66 -99 -116 -40 -49 -83 -100
-95 -112 -12 -13 -32 -37 -46 -54 -37 -45 -142 -149 -151 -149 -16 0 -57 -53
-63 -82 -8 -40 -28 -44 -73 -15 -21 14 -62 28 -92 32 -30 4 -75 18 -99 31 -25
13 -62 24 -82 24 -20 0 -57 11 -81 24 -25 13 -70 26 -101 30 -32 4 -68 16 -82
27 -13 10 -33 19 -43 19 -42 0 -83 -73 -83 -148 0 -18 -8 -49 -19 -70 -10 -20
-23 -67 -29 -104 -6 -36 -17 -77 -25 -90 -8 -12 -18 -50 -21 -83 -4 -33 -14
-70 -22 -83 -9 -13 -20 -54 -26 -90 -6 -37 -18 -83 -28 -102 -9 -19 -20 -60
-23 -92 -3 -31 -13 -68 -22 -81 -9 -14 -20 -54 -25 -89 -5 -35 -19 -81 -30
-103 -11 -21 -20 -57 -20 -80 0 -22 -9 -60 -20 -84 -11 -24 -23 -68 -26 -97
-5 -36 -11 -54 -20 -54 -23 0 -16 -29 15 -59 22 -21 44 -31 83 -36 29 -4 73
-18 98 -31 25 -13 61 -24 81 -24 20 0 56 -11 80 -23 24 -13 69 -27 99 -31 30
-4 69 -16 86 -26 17 -11 48 -23 70 -28 l39 -8 -3 -50 c-2 -27 -12 -69 -22 -94
-10 -25 -21 -73 -25 -108 -3 -35 -14 -82 -24 -105 -10 -23 -21 -77 -24 -120
-4 -42 -14 -94 -23 -115 -8 -20 -20 -78 -24 -129 -5 -51 -17 -109 -25 -130 -9
-21 -20 -85 -25 -143 -5 -58 -16 -124 -24 -147 -8 -24 -20 -103 -25 -175 -6
-73 -17 -153 -25 -178 -9 -26 -20 -116 -25 -210 -6 -91 -15 -181 -21 -200 -6
-19 -16 -132 -21 -250 -5 -118 -14 -273 -21 -345 -16 -189 -22 -846 -9 -974 6
-58 15 -223 21 -366 7 -164 18 -301 30 -370 10 -60 21 -162 24 -226 3 -63 13
-138 21 -165 9 -27 20 -101 25 -164 5 -63 16 -135 25 -160 9 -25 20 -88 25
-140 4 -52 15 -112 24 -132 9 -21 20 -78 25 -127 5 -49 16 -103 25 -119 8 -16
18 -60 22 -98 4 -38 14 -87 24 -109 10 -22 21 -66 25 -99 4 -32 15 -77 24
-100 10 -22 21 -68 25 -101 4 -33 14 -70 22 -83 9 -13 20 -50 25 -83 5 -33 18
-77 29 -97 11 -20 20 -53 20 -72 0 -19 11 -57 25 -85 13 -27 25 -63 25 -80 0
-16 12 -52 25 -80 14 -27 25 -63 25 -80 0 -16 9 -44 19 -61 10 -17 22 -50 26
-74 4 -23 15 -57 25 -74 10 -17 21 -49 25 -71 4 -22 15 -54 26 -71 10 -17 19
-42 19 -55 0 -13 11 -45 25 -71 14 -26 25 -55 25 -65 0 -10 12 -40 25 -68 14
-27 25 -60 25 -71 0 -12 9 -33 21 -47 11 -15 23 -44 26 -64 3 -21 12 -45 20
-55 8 -9 21 -37 28 -62 8 -26 21 -56 30 -68 8 -13 15 -30 15 -39 0 -9 11 -37
25 -63 14 -26 25 -52 25 -57 0 -6 14 -40 31 -77 17 -37 39 -85 48 -107 10 -22
30 -65 45 -96 14 -31 26 -61 26 -66 0 -6 8 -21 18 -34 11 -13 22 -37 26 -53 4
-17 16 -42 27 -57 10 -15 19 -32 19 -39 0 -11 24 -62 63 -135 9 -16 24 -46 32
-65 9 -19 20 -42 25 -50 6 -8 17 -31 25 -50 9 -19 20 -42 25 -50 5 -8 30 -55
55 -105 55 -105 75 -144 87 -165 5 -8 17 -33 28 -55 11 -22 27 -49 35 -59 8
-11 15 -28 15 -37 0 -10 11 -30 24 -46 14 -16 28 -41 31 -56 4 -15 11 -27 15
-27 4 0 13 -13 20 -29 6 -16 23 -44 36 -62 13 -18 24 -38 24 -44 0 -7 17 -40
38 -74 51 -84 88 -150 106 -187 8 -17 22 -36 30 -44 9 -7 16 -20 16 -30 0 -9
12 -30 26 -45 23 -25 29 -27 77 -21 29 4 68 18 87 30 19 13 55 27 80 30 25 4
54 15 65 25 11 11 45 24 75 30 30 7 62 19 72 28 9 8 38 19 63 24 26 5 58 18
71 28 14 11 45 23 70 27 24 3 55 15 68 25 14 11 45 23 69 28 25 4 58 18 75 29
16 12 41 22 54 22 12 0 50 14 83 30 33 16 70 30 83 30 13 0 36 9 51 21 16 12
50 25 76 30 25 5 58 18 71 28 14 11 46 23 72 27 26 3 57 15 69 27 12 11 45 23
73 28 28 4 57 15 65 23 15 15 76 36 103 36 7 0 26 9 41 21 16 12 50 25 77 30
26 5 56 16 65 25 10 9 40 20 66 25 26 5 60 18 76 29 15 12 47 24 72 29 25 5
54 16 64 25 10 9 36 20 57 23 22 3 63 19 93 35 30 15 64 28 77 28 52 0 94 40
94 88 0 9 -27 46 -60 82 -33 36 -66 72 -74 80 -8 8 -53 62 -101 120 -47 58
-96 116 -109 130 -54 60 -216 259 -216 265 0 4 -11 21 -25 39 -14 17 -32 40
-41 51 -8 11 -29 39 -47 61 -82 106 -124 160 -142 188 -43 64 -98 142 -160
226 -30 41 -61 89 -70 105 -8 17 -29 48 -45 70 -42 54 -81 114 -100 151 -9 17
-22 37 -28 45 -24 28 -72 104 -72 115 0 6 -7 17 -16 25 -14 11 -29 36 -73 118
-8 14 -32 52 -53 85 -21 32 -45 73 -53 90 -8 17 -28 51 -45 76 -16 25 -33 52
-36 60 -23 51 -38 80 -59 115 -14 22 -34 58 -45 80 -20 38 -32 62 -65 123 -8
15 -24 45 -35 67 -11 22 -39 73 -60 114 -22 40 -40 79 -40 86 0 7 -9 23 -19
37 -11 13 -23 38 -27 54 -4 16 -15 38 -25 49 -9 11 -21 34 -25 50 -4 17 -15
41 -25 54 -10 12 -21 38 -25 57 -3 18 -12 38 -20 45 -8 6 -19 30 -25 52 -6 23
-19 52 -30 65 -10 14 -19 31 -19 38 0 7 -11 34 -25 60 -14 26 -25 55 -25 64 0
10 -9 29 -20 42 -10 14 -24 44 -29 67 -5 23 -16 50 -25 60 -9 9 -19 33 -22 52
-4 19 -15 45 -26 58 -10 13 -18 34 -18 46 0 12 -11 43 -25 69 -14 26 -25 55
-25 64 0 9 -11 38 -25 64 -14 26 -25 57 -25 70 0 13 -12 41 -25 63 -14 22 -25
51 -25 65 0 14 -12 48 -25 75 -14 28 -25 60 -25 72 0 12 -9 37 -19 55 -11 18
-23 51 -26 73 -4 22 -15 54 -25 71 -10 17 -21 51 -25 75 -4 24 -15 58 -25 74
-10 17 -21 52 -25 79 -3 26 -15 62 -26 80 -10 17 -19 47 -19 66 0 19 -12 58
-25 85 -14 28 -25 65 -25 83 0 18 -9 51 -21 73 -11 22 -23 64 -26 92 -3 29
-14 66 -24 84 -10 18 -22 63 -27 101 -6 39 -17 80 -25 93 -8 13 -18 50 -22 82
-3 32 -15 77 -25 100 -10 23 -21 71 -25 107 -3 36 -13 75 -21 88 -8 12 -19 59
-25 104 -5 44 -17 94 -25 110 -8 16 -19 66 -24 112 -6 45 -17 97 -26 114 -8
18 -19 72 -24 120 -5 48 -16 104 -25 125 -8 21 -20 79 -25 130 -4 51 -16 109
-25 130 -8 21 -18 75 -21 120 -3 45 -14 109 -24 142 -10 33 -21 103 -25 155
-4 52 -13 113 -21 135 -8 22 -19 94 -24 160 -6 66 -17 145 -26 175 -8 30 -19
116 -24 190 -6 74 -17 160 -25 190 -9 30 -20 127 -25 215 -9 151 -19 218 -34
244 -10 16 3 51 18 51 28 0 56 46 65 110 5 36 19 85 30 110 11 25 21 63 21 84
0 22 9 58 20 80 10 23 23 69 29 103 5 34 16 72 24 85 8 13 18 50 22 83 4 33
15 76 25 95 9 19 20 59 24 89 4 30 15 70 25 90 10 20 21 61 24 92 3 31 15 73
26 95 12 21 21 57 21 79 0 22 9 57 20 77 19 37 40 135 40 195 0 42 -42 72
-112 80 -29 3 -73 16 -98 28 -25 12 -67 25 -95 28 -60 7 -148 44 -142 60 2 7
20 15 39 18 19 3 48 15 63 27 15 12 40 22 54 22 15 0 42 11 61 25 18 14 50 28
69 31 20 3 52 16 71 29 19 12 52 25 73 28 20 3 48 15 62 25 14 11 42 23 62 27
21 4 50 16 65 26 15 11 44 23 65 26 20 4 51 16 69 28 18 12 51 25 74 29 23 3
54 16 69 27 30 22 149 39 281 39 86 0 114 13 123 59 8 39 70 79 141 91 29 4
67 17 86 28 19 11 59 23 89 27 30 4 75 18 99 31 26 14 62 24 85 24 22 0 63 11
91 24 28 13 80 27 115 30 36 4 81 16 102 26 21 11 76 24 123 29 47 6 100 18
118 27 19 10 72 21 127 25 51 5 119 17 150 28 34 12 110 23 196 30 77 6 165
18 195 27 136 39 1295 38 1445 0 33 -9 123 -21 200 -26 80 -6 169 -19 207 -31
37 -10 114 -23 170 -28 57 -4 121 -16 143 -25 22 -10 81 -22 131 -26 50 -5
112 -18 138 -30 26 -11 80 -23 119 -26 40 -4 92 -16 117 -27 24 -10 76 -23
114 -28 38 -5 86 -17 106 -28 20 -10 65 -22 100 -26 36 -4 85 -16 110 -27 24
-11 71 -24 105 -28 33 -4 76 -17 95 -28 19 -11 62 -23 94 -26 33 -4 74 -15 91
-26 18 -11 62 -24 99 -29 37 -5 79 -17 92 -26 14 -9 53 -21 87 -26 34 -6 75
-19 92 -29 17 -10 58 -23 91 -29 33 -5 75 -18 94 -29 19 -11 59 -22 89 -26 30
-3 62 -13 72 -22 24 -22 24 -65 0 -96 -11 -13 -23 -38 -27 -54 -4 -16 -17 -47
-30 -70 -13 -22 -24 -50 -24 -60 0 -11 -11 -35 -25 -54 -14 -19 -25 -42 -25
-51 0 -10 -11 -39 -25 -65 -14 -26 -25 -55 -25 -64 0 -10 -7 -23 -15 -30 -8
-6 -21 -35 -29 -65 -9 -29 -22 -58 -30 -64 -7 -6 -16 -27 -19 -46 -3 -20 -15
-47 -26 -62 -12 -14 -21 -35 -21 -47 0 -12 -11 -38 -25 -58 -14 -20 -25 -45
-25 -56 0 -10 -9 -29 -20 -42 -11 -13 -20 -28 -20 -35 0 -38 83 -48 128 -15
15 10 49 24 76 30 27 6 60 20 74 30 13 11 35 20 49 20 13 0 49 14 80 30 31 17
65 30 77 30 12 0 39 12 61 25 22 14 52 25 66 25 14 0 40 11 58 24 17 13 52 27
76 30 24 4 55 16 68 26 13 11 45 24 71 30 26 6 59 19 74 29 15 11 44 22 66 26
21 3 51 15 65 26 15 11 45 22 66 26 22 3 56 17 75 30 19 12 46 23 59 23 13 0
43 11 65 24 23 13 59 27 81 31 22 4 49 16 61 26 11 10 43 23 72 29 28 5 60 18
70 28 11 11 40 22 65 26 25 4 57 16 71 27 13 10 45 23 71 28 25 5 54 16 65 26
11 10 40 21 65 26 26 5 57 17 71 28 14 11 43 23 66 26 23 4 54 16 69 27 15 11
48 24 73 29 25 5 59 18 74 29 15 11 46 23 67 27 22 3 49 14 61 24 11 10 44 23
74 29 30 6 63 19 74 29 12 10 40 22 62 26 23 3 61 20 84 37 l42 31 -7 71 c-3
38 -15 87 -26 109 -11 21 -23 62 -26 90 -3 29 -14 68 -23 87 -10 19 -21 62
-25 94 -4 33 -13 69 -21 82 -8 12 -19 50 -25 84 -5 35 -17 76 -25 93 -9 16
-20 59 -25 95 -5 37 -16 76 -24 89 -8 12 -19 52 -24 88 -5 37 -17 78 -26 92
-9 13 -19 50 -22 81 -3 32 -14 72 -24 91 -10 18 -21 59 -25 90 -3 31 -14 72
-24 91 -10 19 -22 65 -28 102 -6 36 -17 77 -25 90 -8 12 -17 49 -21 81 -3 32
-13 69 -22 81 -8 13 -19 51 -24 84 -6 33 -19 80 -30 104 -11 23 -20 61 -20 83
0 23 -9 59 -20 80 -11 22 -25 68 -29 101 -5 34 -16 73 -25 86 -8 13 -18 50
-22 83 -4 33 -15 75 -25 94 -10 18 -21 59 -25 90 -3 31 -14 72 -24 91 -10 19
-20 58 -24 85 -4 28 -15 70 -25 95 -10 25 -24 57 -30 73 -13 32 -45 36 -61 8z"/>
<path d="M8655 22490 c-27 -5 -73 -9 -101 -9 -47 -1 -52 -4 -75 -38 -25 -37
-27 -39 -90 -70 -108 -53 -116 -60 -123 -105 -4 -24 -20 -63 -36 -87 -17 -24
-30 -52 -30 -62 0 -10 -11 -35 -25 -55 -43 -64 -49 -103 -49 -354 0 -218 2
-240 23 -310 37 -118 55 -147 107 -170 34 -16 44 -25 40 -38 -7 -19 28 -82 45
-82 6 0 25 -10 42 -22 17 -13 41 -28 52 -33 11 -6 21 -21 23 -33 4 -27 24 -38
94 -53 29 -7 64 -20 77 -30 21 -17 43 -19 200 -19 148 0 180 3 200 17 30 20
130 42 197 43 63 0 75 13 89 89 10 53 12 57 56 78 41 19 51 30 79 90 18 37 42
78 52 89 14 15 22 47 28 110 13 122 12 479 -1 545 -6 30 -12 74 -13 99 -2 41
-8 52 -69 115 -37 39 -70 79 -73 90 -9 26 -28 41 -91 70 -29 14 -53 31 -53 39
0 8 -16 22 -35 31 -19 8 -50 21 -67 29 -78 34 -156 46 -289 45 -74 -1 -156 -5
-184 -9z"/>
<path d="M12090 21191 c-114 -16 -131 -21 -128 -39 5 -28 -43 -41 -202 -52
-144 -9 -174 -10 -240 -6 -18 1 -31 -9 -49 -36 -20 -31 -30 -38 -57 -38 -45 0
-85 -17 -91 -39 -3 -12 -24 -24 -61 -35 -74 -22 -132 -47 -132 -57 0 -22 -54
-69 -79 -69 -33 0 -74 -29 -132 -94 -27 -29 -54 -49 -69 -51 -14 -1 -33 -3
-42 -4 -11 -1 -29 -26 -50 -70 -24 -50 -42 -74 -66 -87 -18 -9 -53 -41 -78
-71 -25 -29 -50 -53 -56 -53 -14 0 -47 -42 -48 -62 0 -25 -57 -68 -91 -68 -33
0 -49 -27 -49 -84 0 -44 -55 -143 -90 -161 -19 -10 -32 -29 -44 -64 -9 -27
-16 -56 -16 -63 0 -7 -14 -31 -30 -52 -23 -30 -30 -50 -30 -84 0 -38 -5 -49
-35 -77 -37 -34 -55 -77 -55 -135 0 -19 -12 -55 -25 -79 -21 -37 -27 -62 -31
-145 -6 -104 -9 -112 -59 -141 -26 -15 -33 -126 -10 -161 14 -22 15 -31 5 -52
-22 -49 -34 -254 -22 -367 8 -74 8 -135 1 -216 -6 -63 -7 -154 -3 -204 4 -49
8 -152 8 -228 l1 -139 38 -30 37 -30 0 -86 c0 -59 5 -97 16 -117 27 -53 65
-154 71 -190 3 -20 13 -41 23 -48 26 -19 40 -52 40 -96 0 -33 7 -49 35 -80 30
-32 35 -46 35 -85 0 -56 14 -86 39 -86 19 0 51 -29 51 -47 0 -5 13 -27 30 -49
20 -27 30 -51 30 -77 0 -48 15 -77 40 -77 10 0 21 -8 24 -18 11 -33 53 -63 95
-69 45 -6 52 -12 55 -46 2 -12 16 -37 33 -56 19 -20 33 -49 37 -74 7 -44 30
-77 53 -77 8 0 35 -11 61 -25 26 -14 54 -25 64 -25 26 0 98 -52 98 -71 0 -19
32 -43 71 -52 14 -4 43 -18 65 -33 21 -15 59 -32 84 -38 35 -9 46 -16 48 -34
4 -26 35 -49 80 -58 19 -4 41 -18 53 -35 18 -25 27 -29 69 -29 60 0 97 -13
121 -44 22 -29 65 -40 99 -28 16 6 41 4 75 -6 41 -13 147 -16 620 -18 551 -4
573 -3 653 17 68 18 87 19 111 9 34 -14 60 -4 84 33 12 19 28 26 73 32 32 4
68 14 81 22 13 9 41 18 61 20 64 6 232 63 232 79 0 7 13 20 30 29 21 11 31 25
36 50 10 57 -1 677 -13 706 -7 15 -18 29 -26 32 -20 8 -97 -29 -97 -47 0 -27
-42 -46 -102 -46 -51 0 -61 -3 -84 -29 -21 -24 -37 -31 -83 -36 -115 -12 -121
-14 -121 -39 0 -13 -6 -29 -14 -35 -18 -15 -171 -33 -213 -25 -24 5 -50 -2
-99 -25 l-66 -31 -274 0 -274 0 -54 29 c-46 24 -66 29 -134 29 -82 1 -188 31
-163 46 19 12 2 26 -33 26 -28 0 -36 5 -46 31 -17 41 -50 61 -89 54 -36 -6
-108 26 -118 53 -8 21 -23 32 -45 32 -9 0 -37 12 -62 27 -37 22 -45 33 -50 65
-4 21 -14 45 -24 53 -80 70 -137 115 -153 120 -12 4 -24 25 -34 59 -22 76 -35
89 -91 95 l-49 6 -8 51 c-6 37 -18 63 -43 92 -19 22 -34 49 -34 60 0 48 -13
82 -31 82 -26 0 -37 27 -45 106 -6 72 -23 134 -50 186 -10 20 -17 63 -18 124
-3 92 -13 124 -42 124 -24 0 -29 71 -29 410 0 343 4 380 39 380 21 0 26 24 26
124 0 87 2 97 35 159 35 66 42 104 44 234 1 50 3 53 35 67 34 14 46 42 46 107
0 18 7 32 20 39 11 6 34 40 51 76 37 77 99 153 143 174 17 8 55 39 84 69 46
47 52 58 52 95 0 58 20 82 74 90 44 7 60 19 81 60 7 12 19 20 31 19 49 -7 80
7 97 42 13 27 23 35 44 36 49 1 96 23 113 53 16 31 77 56 135 56 17 0 57 11
90 25 57 23 70 24 250 24 105 0 230 -4 279 -7 80 -7 90 -10 110 -35 19 -23 29
-27 71 -26 28 1 82 -1 120 -4 61 -6 73 -10 95 -36 20 -23 38 -31 91 -40 36 -6
80 -11 97 -11 22 0 40 -10 64 -34 26 -27 46 -37 92 -45 39 -7 64 -18 73 -31 8
-11 40 -27 71 -36 32 -9 70 -29 87 -45 38 -36 103 -41 134 -10 18 18 19 37 15
401 -2 278 -7 386 -15 397 -20 23 -78 43 -125 43 -38 0 -46 4 -54 24 -7 20
-18 25 -62 31 -38 5 -62 15 -83 35 -37 35 -68 44 -95 30 -15 -8 -30 -8 -58 0
-20 7 -121 15 -224 20 -210 10 -268 21 -268 50 0 13 -11 22 -37 30 -46 13
-476 22 -553 11z"/>
<path d="M14148 21063 c-56 -6 -60 -28 -60 -356 1 -315 6 -349 59 -361 15 -3
391 -5 835 -3 443 1 810 -1 813 -5 4 -4 7 -981 6 -2170 -1 -1838 1 -2166 12
-2183 20 -27 91 -33 357 -33 262 -1 395 9 415 29 12 12 14 125 15 704 0 380 1
717 1 750 2 108 2 319 0 390 -2 59 -1 505 2 765 1 162 1 629 -1 700 0 41 -1
140 0 220 1 80 0 168 0 195 -1 28 0 177 1 332 2 214 6 286 15 295 10 10 179
13 820 15 444 1 810 2 813 2 4 1 12 20 18 44 8 29 11 134 9 345 -3 287 -4 304
-22 318 -17 12 -311 14 -2045 12 -1114 -1 -2043 -3 -2063 -5z"/>
<path d="M8985 20357 c-63 -11 -156 -11 -391 -2 -200 8 -189 20 -188 -217 1
-313 11 -592 23 -620 33 -85 41 -482 44 -2248 2 -951 6 -1260 15 -1276 19 -34
108 -44 403 -44 289 0 386 9 406 36 10 14 13 445 13 2159 0 2399 8 2177 -77
2190 -27 4 -55 10 -63 15 -28 14 -124 17 -185 7z"/>
<path d="M27486 18813 c-10 -3 -33 -14 -50 -24 -17 -10 -38 -19 -47 -19 -35 0
-148 -113 -190 -190 -16 -30 -37 -82 -45 -115 -8 -33 -19 -76 -24 -95 -5 -19
-10 -104 -10 -188 0 -127 3 -162 20 -209 11 -32 20 -68 20 -80 0 -58 132 -243
173 -243 9 0 28 -11 44 -24 18 -14 48 -26 82 -30 30 -4 70 -15 90 -25 28 -15
71 -20 191 -26 85 -4 180 -14 210 -22 30 -9 79 -21 107 -27 29 -6 57 -16 64
-23 13 -13 18 -188 6 -226 -16 -49 -51 -58 -218 -58 -83 1 -168 4 -190 7 -55
9 -84 47 -93 120 -4 32 -12 64 -18 71 -8 10 -62 13 -239 13 -215 0 -229 -1
-239 -19 -5 -11 -10 -85 -10 -168 0 -125 3 -154 18 -183 11 -19 22 -48 26 -64
13 -53 106 -156 166 -183 19 -8 45 -24 59 -34 13 -10 40 -19 60 -19 36 -1 124
-20 171 -37 14 -5 154 -8 316 -7 271 2 294 3 337 23 25 12 56 21 68 21 60 0
214 139 267 242 18 35 37 86 42 113 4 28 15 68 23 90 21 57 16 352 -7 414 -9
24 -16 53 -16 65 0 11 -7 35 -16 51 -9 17 -23 44 -31 60 -17 34 -120 135 -138
135 -6 0 -22 11 -34 24 -17 18 -38 27 -80 31 -31 4 -66 14 -79 21 -28 18 -142
33 -255 34 -59 0 -98 5 -118 15 -16 9 -34 13 -40 10 -5 -4 -31 0 -57 9 -26 8
-62 19 -81 23 -43 10 -53 41 -49 150 3 75 4 77 37 95 47 27 299 30 349 4 17
-9 32 -20 33 -24 0 -4 2 -29 5 -57 6 -84 10 -85 259 -85 267 0 260 -4 260 127
0 111 -19 239 -38 261 -8 9 -22 33 -29 52 -17 40 -100 130 -121 130 -7 0 -24
11 -37 25 -13 14 -35 25 -49 25 -14 0 -42 10 -61 23 -35 22 -40 22 -405 24
-203 0 -379 -1 -389 -4z"/>
<path d="M16872 18789 c-10 -4 -23 -13 -30 -21 -17 -21 -18 -2004 -1 -2024 16
-19 1378 -21 1397 -2 9 9 12 73 12 225 0 201 -1 214 -20 233 -20 20 -31 21
-437 20 -229 -1 -419 2 -424 7 -9 9 -14 301 -6 310 3 3 180 5 394 4 299 -1
394 2 413 12 25 12 25 14 30 179 5 174 1 231 -19 251 -9 9 -121 13 -414 17
l-402 5 -5 135 c-3 74 -3 141 -1 148 2 9 95 12 418 12 266 0 421 4 434 10 18
10 19 23 19 229 0 197 -2 219 -18 234 -16 15 -83 17 -671 19 -359 2 -660 0
-669 -3z"/>
<path d="M18740 18790 l-255 -5 3 -44 c2 -24 15 -64 28 -89 13 -25 24 -52 24
-61 0 -9 12 -34 25 -56 14 -22 25 -48 25 -57 0 -9 11 -38 25 -64 14 -26 25
-53 25 -61 0 -8 11 -35 25 -61 14 -26 25 -52 25 -59 0 -7 11 -33 25 -59 14
-26 25 -55 25 -65 0 -10 11 -35 25 -55 14 -20 25 -47 25 -59 0 -12 6 -28 14
-34 8 -6 19 -32 25 -57 7 -25 21 -59 33 -75 l22 -29 -21 -28 c-11 -15 -24 -42
-27 -59 -4 -18 -15 -42 -25 -55 -10 -13 -21 -39 -25 -59 -3 -20 -15 -44 -25
-53 -11 -10 -22 -32 -25 -51 -4 -18 -13 -38 -21 -45 -8 -7 -20 -31 -26 -54 -6
-22 -20 -53 -30 -67 -10 -15 -19 -35 -19 -46 0 -10 -11 -35 -25 -55 -14 -20
-25 -44 -25 -52 0 -9 -11 -37 -24 -63 -14 -27 -36 -75 -51 -108 -14 -33 -35
-77 -46 -97 -10 -20 -19 -44 -19 -52 0 -8 -12 -28 -26 -45 -29 -35 -25 -68 9
-76 12 -3 141 -4 287 -3 l265 3 32 65 c17 36 35 81 39 100 3 19 13 43 21 52 8
9 19 36 24 59 6 23 19 54 29 70 11 15 20 38 20 52 0 13 9 36 20 49 10 14 24
47 30 74 6 27 18 56 26 66 9 9 18 35 21 57 10 76 55 72 69 -7 3 -20 14 -50 24
-67 10 -16 21 -45 25 -64 4 -19 16 -48 26 -65 10 -17 19 -40 19 -52 0 -12 11
-42 24 -67 14 -25 28 -62 32 -82 3 -19 15 -46 25 -59 11 -13 19 -32 19 -40 0
-9 14 -46 30 -81 l30 -65 280 0 c276 0 279 0 294 22 14 20 14 24 1 43 -9 11
-18 27 -21 35 -2 8 -16 36 -29 63 -14 26 -25 54 -25 63 0 8 -11 32 -25 52 -14
20 -25 45 -25 55 0 11 -9 31 -19 46 -11 15 -23 40 -27 57 -4 16 -15 41 -25 55
-10 14 -21 38 -25 55 -4 16 -15 45 -25 64 -10 19 -30 62 -44 95 -15 33 -37 83
-50 110 -13 28 -27 61 -31 75 -4 14 -15 36 -25 49 -11 13 -19 34 -19 46 0 12
-9 32 -20 45 -25 29 -25 50 -2 81 11 13 22 37 26 53 4 17 16 42 27 57 10 15
19 35 19 46 0 10 11 35 25 55 14 20 25 44 25 52 0 9 12 40 27 68 53 106 60
124 67 159 4 21 13 43 21 49 9 7 20 32 26 56 6 24 17 49 25 55 8 6 19 30 25
52 6 23 19 52 30 65 10 14 19 34 19 44 0 11 9 31 20 45 23 30 25 52 7 77 -12
16 -34 18 -277 16 -257 -1 -300 -6 -300 -34 0 -7 -11 -35 -25 -62 -14 -27 -28
-65 -31 -84 -3 -19 -14 -49 -23 -65 -10 -17 -20 -47 -24 -68 -3 -20 -15 -48
-25 -62 -11 -14 -23 -44 -26 -68 -4 -23 -15 -56 -26 -72 -11 -17 -20 -42 -20
-56 0 -14 -7 -34 -15 -45 -15 -19 -15 -19 -30 0 -8 10 -19 42 -25 72 -6 29
-17 58 -25 64 -8 7 -17 28 -20 49 -4 20 -17 61 -31 92 -13 31 -24 64 -24 74 0
10 -9 32 -19 49 -10 17 -22 47 -26 66 -10 54 -57 138 -83 149 -13 6 -24 10
-25 9 -1 -1 -117 -5 -257 -8z"/>
<path d="M20400 18784 c-15 -7 -30 -22 -33 -35 -4 -13 -7 -466 -7 -1006 0
-879 2 -983 16 -997 13 -14 50 -16 252 -16 132 0 244 5 252 10 13 8 15 50 16
267 l1 258 299 5 c278 5 302 6 339 26 22 11 53 24 69 28 16 4 43 18 59 32 16
13 34 24 41 24 8 0 32 20 54 44 135 147 168 291 159 707 -5 218 -6 229 -31
281 -14 30 -26 62 -26 71 0 19 -60 117 -71 117 -5 0 -15 14 -24 30 -9 17 -21
30 -29 30 -7 0 -23 11 -35 24 -13 13 -35 27 -49 31 -14 3 -39 16 -55 27 -19
14 -54 24 -101 29 -39 4 -80 10 -91 14 -40 12 -976 11 -1005 -1z m870 -499
c14 -8 37 -19 52 -25 57 -24 84 -172 62 -335 -14 -101 -28 -123 -94 -146 -45
-16 -83 -19 -222 -19 -161 0 -168 1 -169 20 0 11 0 130 0 265 0 135 0 247 0
250 1 3 79 5 174 5 132 0 178 -4 197 -15z"/>
<path d="M22196 18787 c-14 -5 -29 -21 -35 -39 -8 -21 -11 -334 -11 -1002 0
-863 2 -974 16 -994 l15 -22 689 0 c671 0 690 1 700 19 6 12 10 103 10 225 0
194 -1 207 -20 226 -20 20 -31 21 -443 20 l-422 -2 -6 154 c-3 84 -2 157 2
161 3 5 187 9 408 10 386 2 403 3 417 21 11 16 14 61 14 208 0 175 -1 189 -20
208 -19 19 -33 20 -420 20 -313 0 -400 3 -400 13 -1 6 -1 73 -2 147 l-2 135
427 5 c366 4 429 7 437 20 5 8 10 108 10 221 0 182 -2 209 -17 228 -18 21 -20
21 -671 23 -358 2 -663 -1 -676 -5z"/>
<path d="M23903 18792 c-55 -8 -53 37 -53 -1035 0 -662 3 -995 10 -1008 10
-18 24 -19 253 -19 176 0 246 3 255 12 9 9 12 88 12 295 l0 283 133 0 c110 0
142 -4 187 -21 30 -11 63 -23 73 -26 9 -3 20 -17 23 -32 3 -14 10 -39 15 -55
5 -16 9 -120 9 -231 0 -160 3 -205 14 -214 9 -8 87 -11 262 -9 l249 3 3 286 2
286 -34 75 c-27 59 -47 86 -97 131 -41 37 -73 57 -89 57 -25 0 -59 16 -50 22
3 2 21 12 40 21 80 40 140 89 140 112 0 7 9 20 19 29 11 10 22 30 26 44 4 15
14 35 23 46 15 16 17 51 17 305 0 246 -2 290 -16 311 -9 14 -21 42 -28 63 -7
20 -16 37 -21 37 -5 0 -12 10 -15 21 -11 33 -113 127 -147 134 -17 4 -46 17
-66 28 -23 14 -65 24 -121 30 -84 9 -984 25 -1028 19z m838 -516 c15 -13 33
-26 40 -28 15 -5 30 -78 36 -181 4 -66 1 -99 -12 -140 -10 -28 -19 -57 -20
-63 -6 -21 -141 -45 -269 -47 -117 -2 -125 -1 -130 18 -3 11 -6 120 -6 243 l0
222 166 0 c161 0 167 -1 195 -24z"/>
<path d="M25551 18773 c-19 -17 -20 -29 -22 -226 -2 -183 0 -210 15 -225 14
-15 48 -18 237 -22 l220 -5 -1 -766 c0 -691 1 -769 15 -783 14 -14 50 -16 255
-16 236 0 239 0 255 23 14 20 15 103 15 782 l-1 760 214 5 c161 4 218 8 230
19 24 20 25 415 1 449 l-15 22 -698 0 c-651 0 -700 -1 -720 -17z"/>
<path d="M29118 17790 c-16 -10 -18 -28 -18 -146 l0 -135 -22 6 c-46 13 -78
28 -78 36 0 12 -68 29 -116 29 -51 0 -62 -13 -74 -81 -4 -30 -12 -62 -15 -72
-4 -9 -4 -28 -1 -42 8 -32 53 -51 145 -60 85 -8 110 -26 86 -59 -8 -11 -19
-31 -24 -42 -5 -12 -17 -24 -25 -27 -9 -4 -16 -13 -16 -21 0 -9 -11 -23 -25
-32 -23 -15 -45 -67 -45 -107 0 -11 13 -24 35 -33 19 -8 35 -19 35 -24 0 -15
61 -50 87 -50 14 0 24 8 28 23 4 12 15 31 25 42 10 11 25 36 34 55 9 19 20 42
25 50 5 8 12 27 16 43 9 42 27 32 63 -33 18 -33 37 -62 43 -65 5 -4 9 -15 9
-25 0 -26 63 -90 88 -90 12 0 37 15 55 34 19 18 44 37 56 41 24 7 36 43 26 76
-7 20 -46 72 -125 167 -25 30 -25 39 1 53 17 9 171 39 202 39 4 0 7 42 7 94 0
74 -3 95 -15 100 -8 3 -15 12 -15 19 0 44 -91 44 -156 1 -19 -13 -47 -27 -62
-30 -15 -4 -35 -16 -45 -28 -17 -20 -17 -20 -11 34 3 30 10 68 15 84 5 16 9
55 9 86 0 77 -17 92 -112 97 -42 2 -80 -1 -90 -7z"/>
<path d="M16764 16518 c-43 -46 -44 -57 -44 -346 l0 -280 34 -30 c33 -29 35
-29 127 -25 52 2 113 9 136 16 84 25 138 143 113 250 -7 29 -20 64 -28 79 -15
25 -15 30 1 63 10 20 17 60 17 91 0 46 -6 65 -31 104 -26 41 -41 52 -93 71
-36 14 -91 25 -136 27 -68 3 -77 2 -96 -20z m202 -182 c32 -24 7 -51 -47 -51
-45 0 -59 15 -45 51 7 18 66 18 92 0z m12 -249 c7 -6 12 -24 10 -41 -3 -31 -4
-31 -58 -31 l-55 0 1 33 c3 57 9 64 51 56 21 -4 44 -11 51 -17z"/>
<path d="M17257 16529 c-9 -5 -26 -28 -38 -50 -19 -38 -20 -54 -16 -316 l3
-276 31 -26 c30 -25 35 -26 161 -24 128 1 154 7 186 39 21 21 20 77 -2 104
-16 20 -30 23 -120 28 -103 5 -107 6 -102 47 5 46 15 51 82 44 72 -7 98 3 122
50 20 37 10 97 -18 116 -14 10 -47 15 -103 15 -74 0 -82 2 -88 20 -13 40 10
50 110 50 108 0 127 12 129 81 1 35 -4 46 -36 75 l-38 34 -122 0 c-68 0 -131
-5 -141 -11z"/>
<path d="M17775 16530 c-4 -6 -24 -19 -46 -31 -29 -14 -45 -31 -55 -57 -8 -20
-21 -50 -29 -65 -20 -37 -18 -63 5 -112 11 -22 19 -45 20 -51 0 -14 76 -84 91
-84 6 0 33 -14 60 -32 40 -25 49 -37 49 -60 0 -26 -3 -28 -39 -28 -36 0 -40 3
-46 30 -12 54 -82 86 -139 64 -31 -12 -30 -67 2 -135 36 -76 59 -99 129 -129
l52 -22 58 23 c76 30 75 29 113 101 29 54 33 72 31 126 -1 50 -7 70 -31 106
-16 24 -36 49 -45 56 -24 20 -18 36 20 59 39 23 41 33 21 109 -17 63 -25 73
-83 112 -32 22 -56 30 -88 30 -24 0 -47 -5 -50 -10z m93 -205 c16 -36 15 -45
-7 -45 -23 0 -74 47 -66 60 3 6 19 10 34 10 20 0 31 -7 39 -25z"/>
<path d="M18080 16520 c-18 -18 -20 -31 -18 -93 3 -69 4 -72 28 -75 14 -1 39
-5 55 -7 l30 -5 -3 -218 -4 -218 27 -32 c17 -20 36 -32 52 -32 27 0 64 17 76
34 4 6 7 111 6 233 -1 122 2 226 6 232 3 6 24 11 45 11 44 0 66 17 75 59 7 34
-24 104 -54 121 -11 5 -83 10 -160 10 -129 0 -143 -2 -161 -20z"/>
<path d="M18752 16504 c-30 -20 -57 -48 -62 -63 -5 -14 -16 -39 -25 -54 -21
-39 -19 -72 8 -137 26 -65 48 -87 145 -140 66 -37 73 -44 70 -68 -3 -23 -8
-27 -41 -30 -35 -3 -38 -1 -43 28 -9 41 -47 70 -95 70 -72 0 -88 -52 -44 -143
36 -74 62 -100 128 -126 l58 -23 52 22 c67 29 90 50 123 117 23 48 26 62 20
114 -7 61 -32 116 -73 158 -30 31 -29 37 12 56 43 21 50 42 31 104 -21 72 -30
85 -84 120 -67 43 -111 42 -180 -5z m132 -176 c21 -30 20 -48 -3 -48 -24 0
-71 37 -71 56 0 23 56 17 74 -8z"/>
<path d="M19235 16515 c-75 -61 -100 -93 -126 -161 -30 -77 -34 -269 -6 -321
9 -18 17 -41 17 -52 0 -26 76 -114 109 -125 14 -5 35 -15 46 -22 27 -19 49
-17 87 6 18 11 40 20 49 20 16 0 46 34 101 115 27 39 28 42 28 202 0 157 -1
163 -25 199 -14 20 -25 42 -25 48 -1 14 -46 66 -58 66 -4 0 -23 11 -42 25 -46
34 -113 34 -155 0z m144 -207 c36 -76 37 -138 6 -223 -16 -46 -33 -76 -45 -80
-24 -8 -67 10 -78 32 -27 52 -20 286 9 304 8 5 30 9 51 9 33 0 38 -4 57 -42z"/>
<path d="M20090 16498 l-30 -41 0 -171 c0 -207 22 -337 65 -388 23 -27 120
-78 148 -78 27 0 127 58 143 84 10 17 25 39 32 51 9 15 12 84 10 281 -3 241
-4 264 -22 283 -35 38 -88 22 -112 -34 -11 -26 -14 -86 -14 -243 0 -190 -2
-210 -18 -225 -23 -21 -36 -21 -56 -1 -14 13 -16 49 -16 232 0 119 -3 227 -6
240 -7 23 -50 52 -78 52 -9 0 -29 -19 -46 -42z"/>
<path d="M20505 16520 c-22 -24 -32 -118 -16 -147 7 -14 24 -22 57 -26 56 -6
70 -17 55 -45 -7 -13 -11 -92 -11 -211 0 -189 0 -189 26 -220 28 -34 61 -40
104 -18 l25 13 5 239 5 240 45 3 c54 4 59 8 70 58 7 29 5 47 -7 72 -27 57 -42
62 -199 62 -129 0 -142 -2 -159 -20z"/>
<path d="M20987 16529 c-9 -5 -25 -24 -34 -42 -14 -27 -17 -74 -21 -307 l-4
-276 27 -32 c17 -20 36 -32 52 -32 27 0 64 17 75 34 4 6 8 147 8 312 0 273 -2
304 -17 322 -22 26 -62 36 -86 21z"/>
<path d="M21260 16509 c-25 -17 -48 -39 -52 -50 -4 -11 -14 -22 -23 -25 -8 -3
-26 -42 -40 -86 -35 -111 -35 -231 1 -340 15 -46 34 -83 44 -88 10 -6 21 -18
24 -28 6 -16 109 -72 135 -72 6 0 28 9 48 20 21 11 43 20 49 20 13 0 84 78 84
93 0 6 10 21 23 35 21 23 22 31 22 191 0 158 -1 168 -22 195 -13 16 -23 34
-23 42 0 19 -48 72 -73 80 -12 4 -33 15 -46 25 -37 29 -97 24 -151 -12z m156
-207 c36 -67 34 -163 -4 -237 -8 -16 -18 -37 -22 -45 -12 -24 -46 -23 -76 4
l-29 24 0 135 c0 156 5 170 68 165 36 -3 43 -7 63 -46z"/>
<path d="M21703 16518 c-42 -46 -43 -58 -43 -346 l0 -280 35 -31 c34 -29 37
-30 68 -18 49 20 57 46 50 159 -4 69 -3 98 5 98 6 0 16 -19 22 -42 7 -22 20
-57 31 -77 10 -20 19 -45 19 -56 0 -41 75 -101 112 -90 59 18 58 10 58 347 l0
309 -25 24 c-13 14 -31 25 -40 25 -9 0 -27 -11 -40 -25 -24 -23 -25 -29 -25
-160 0 -135 -8 -161 -29 -92 -26 85 -53 152 -65 166 -8 9 -18 28 -21 44 -8 30
-48 67 -75 67 -9 0 -26 -10 -37 -22z"/>
<path d="M22295 16515 c-21 -20 -25 -34 -25 -83 0 -67 11 -82 60 -82 65 0 66
-1 60 -230 -5 -218 -1 -248 41 -271 25 -13 82 -4 98 15 7 8 12 97 13 247 l3
234 45 3 c56 4 67 13 75 62 7 41 -3 69 -38 108 -19 21 -28 22 -164 22 -139 0
-145 -1 -168 -25z"/>
<path d="M22783 16534 c-7 -3 -21 -20 -33 -38 -19 -32 -20 -50 -21 -320 l-1
-287 23 -25 c20 -21 31 -25 62 -21 63 8 67 17 67 131 0 123 9 142 58 125 39
-13 46 -36 39 -122 -5 -72 11 -118 48 -135 33 -15 84 3 96 35 10 27 10 560 0
608 -8 36 -47 61 -84 51 -45 -11 -61 -57 -58 -163 l2 -93 -51 0 -50 0 0 105
c0 99 -2 107 -25 130 -23 24 -45 29 -72 19z"/>
<path d="M23254 16519 c-43 -48 -44 -58 -44 -347 l0 -280 35 -31 c31 -27 38
-29 65 -19 51 17 63 46 59 145 -3 60 0 87 8 90 15 5 63 -66 63 -94 0 -12 5
-25 11 -29 6 -3 19 -26 29 -49 10 -24 28 -48 39 -54 29 -16 83 -13 109 5 26
18 30 65 7 84 -8 6 -17 22 -20 33 -3 12 -20 50 -38 84 -35 67 -36 60 18 153
10 17 15 55 15 116 0 84 -2 93 -27 126 -39 50 -110 78 -220 85 -83 5 -89 4
-109 -18z m216 -183 c6 -8 10 -25 8 -38 -3 -20 -9 -23 -55 -26 -49 -3 -53 -1
-59 22 -10 43 1 56 49 56 27 0 49 -6 57 -14z"/>
<path d="M23780 16509 c-25 -17 -49 -38 -54 -47 -5 -9 -17 -25 -27 -34 -31
-30 -69 -191 -69 -293 0 -27 7 -63 16 -80 9 -16 22 -51 30 -77 8 -26 23 -52
34 -58 10 -5 21 -18 24 -28 6 -18 108 -72 136 -72 9 0 24 6 35 14 11 7 31 17
45 21 25 7 90 67 90 81 0 5 12 26 28 48 27 39 27 41 27 197 0 144 -2 160 -21
186 -12 16 -25 40 -29 53 -8 27 -58 80 -76 80 -6 0 -22 9 -36 20 -39 30 -98
26 -153 -11z m152 -206 c30 -62 32 -185 6 -226 -10 -14 -18 -33 -18 -40 0 -25
-27 -39 -60 -32 -52 11 -62 47 -58 196 3 144 5 149 70 149 35 0 39 -3 60 -47z"/>
<path d="M24234 16532 c-6 -4 -21 -23 -33 -42 -19 -32 -21 -49 -21 -215 0
-285 35 -399 131 -425 21 -6 41 -15 44 -20 10 -16 42 -12 82 10 21 11 44 20
51 20 7 0 22 16 33 35 12 19 25 35 30 35 21 0 29 90 29 318 l0 243 -25 25
c-35 35 -73 29 -102 -15 -22 -33 -23 -42 -23 -237 0 -111 -4 -214 -9 -227 -6
-14 -19 -28 -31 -32 -45 -14 -48 1 -52 252 l-3 235 -28 24 c-28 24 -53 30 -73
16z"/>
<path d="M24820 16515 c-19 -14 -40 -25 -47 -25 -7 0 -19 -13 -27 -29 -9 -16
-22 -31 -30 -34 -8 -3 -18 -23 -22 -44 -4 -21 -15 -55 -25 -75 -27 -53 -26
-197 1 -253 11 -22 19 -50 20 -62 0 -11 19 -44 43 -73 33 -40 57 -57 106 -77
l62 -25 49 21 c27 12 54 21 60 21 6 0 31 21 55 46 l45 46 0 119 c0 114 -1 121
-25 144 -13 14 -29 25 -35 25 -21 0 -9 29 20 50 39 28 39 56 0 129 -58 108
-174 152 -250 96z m125 -199 c8 -19 19 -37 25 -41 18 -11 11 -25 -12 -25 -32
0 -85 -34 -93 -60 -9 -28 2 -85 18 -98 6 -5 27 -13 45 -17 56 -12 29 -65 -33
-65 -64 0 -92 83 -79 230 8 86 26 110 80 110 31 0 37 -4 49 -34z"/>
<path d="M25199 16528 c-47 -39 -49 -52 -49 -348 0 -174 4 -289 10 -301 6 -10
23 -25 38 -32 23 -12 32 -12 60 0 18 7 35 19 38 26 2 7 5 58 7 114 1 57 7 107
13 113 12 12 63 -3 76 -23 4 -7 8 -53 8 -104 0 -90 1 -92 31 -117 17 -14 35
-26 40 -26 24 0 69 32 74 53 3 12 5 156 3 320 l-3 299 -24 19 c-32 26 -63 24
-92 -7 -22 -23 -24 -35 -26 -122 -1 -53 -3 -100 -3 -104 0 -5 -22 -8 -50 -8
l-50 0 0 109 c0 106 -1 110 -26 130 -30 24 -54 26 -75 9z"/>
<path d="M25826 16525 c-47 -47 -47 -48 -47 -344 0 -182 4 -287 11 -301 6 -11
23 -26 38 -34 24 -12 31 -12 62 3 l35 16 5 105 c4 84 8 105 20 105 15 0 24
-14 84 -146 37 -80 48 -89 114 -89 36 0 72 29 72 59 0 10 -9 30 -20 44 -11 14
-20 33 -20 44 0 10 -14 38 -30 62 -17 24 -30 54 -30 66 0 12 13 42 30 66 27
41 30 51 30 135 0 85 -2 92 -31 132 -42 57 -100 81 -214 89 -79 5 -93 3 -109
-12z m214 -190 c7 -9 10 -25 6 -40 -6 -24 -10 -26 -59 -23 -46 3 -52 6 -55 26
-6 41 4 52 51 52 27 0 49 -6 57 -15z"/>
<path d="M26308 16520 c-46 -36 -49 -57 -46 -353 l3 -277 27 -26 c26 -27 29
-27 155 -26 70 0 134 1 141 1 8 1 27 14 43 30 34 34 38 77 11 111 -16 20 -31
23 -123 29 l-104 6 3 34 c4 52 13 58 82 51 88 -8 129 22 130 96 0 68 -15 78
-117 82 -48 2 -92 8 -97 12 -5 5 -6 20 -2 34 6 26 7 26 105 26 115 0 131 10
131 79 0 36 -6 49 -34 77 l-34 34 -125 0 c-108 0 -127 -3 -149 -20z"/>
<path d="M26842 16504 c-30 -20 -58 -48 -64 -63 -6 -14 -19 -45 -30 -68 -19
-42 -19 -43 0 -85 10 -24 21 -54 25 -68 3 -14 23 -38 44 -53 64 -46 110 -75
132 -82 23 -7 39 -51 24 -66 -6 -6 -26 -9 -44 -7 -29 2 -35 7 -37 30 -4 37
-50 68 -99 68 -49 0 -63 -14 -63 -61 0 -79 71 -176 152 -209 l57 -23 53 22
c51 22 108 66 108 83 0 5 10 30 21 56 36 78 11 183 -58 249 -29 28 -29 41 0
52 12 5 30 18 40 28 16 19 16 25 3 74 -22 83 -25 87 -81 124 -70 47 -112 47
-183 -1z m132 -176 c21 -30 20 -48 -3 -48 -24 0 -71 37 -71 56 0 23 56 17 74
-8z"/>
<path d="M27238 16530 c-9 -6 -26 -25 -37 -44 -21 -33 -21 -44 -18 -316 l3
-281 27 -26 c25 -26 28 -26 154 -25 70 0 134 1 141 1 29 2 62 49 62 89 0 66
-13 74 -131 81 l-104 6 3 34 c4 52 13 58 82 51 88 -8 129 22 130 96 0 68 -15
78 -117 82 -48 2 -92 8 -97 12 -5 5 -6 20 -2 34 6 26 7 26 105 26 115 0 131
10 131 79 0 36 -6 49 -34 77 l-34 34 -123 0 c-68 0 -132 -5 -141 -10z"/>
<path d="M27769 16511 c-16 -16 -29 -39 -29 -51 0 -11 -8 -37 -19 -58 -10 -20
-21 -63 -25 -95 -3 -32 -15 -75 -25 -95 -10 -20 -21 -62 -25 -92 -4 -30 -14
-66 -23 -79 -9 -15 -18 -56 -20 -102 -5 -75 -5 -77 22 -95 26 -17 29 -17 63 2
26 14 39 30 50 62 17 51 38 64 100 60 46 -3 47 -4 53 -42 12 -72 90 -110 147
-70 28 19 29 66 4 114 -11 19 -22 61 -26 92 -3 32 -15 72 -26 90 -12 20 -20
51 -20 76 0 24 -9 61 -21 84 -12 23 -25 68 -30 102 -7 52 -14 66 -43 94 -44
40 -69 40 -107 3z m71 -326 c0 -26 -14 -33 -25 -15 -9 14 1 40 15 40 5 0 10
-11 10 -25z"/>
<path d="M28141 16511 c-17 -18 -33 -48 -37 -67 -3 -19 -5 -151 -2 -294 4
-257 4 -259 28 -285 25 -27 58 -32 93 -14 35 19 38 29 36 119 -1 111 -1 110
16 110 16 0 55 -68 55 -96 0 -10 8 -27 19 -38 10 -12 23 -34 28 -51 18 -57
104 -75 148 -30 30 29 31 48 6 72 -10 10 -23 34 -29 53 -5 19 -21 53 -36 74
-14 21 -26 43 -26 48 0 15 28 64 44 77 13 11 16 35 16 119 0 97 -2 109 -26
143 -35 50 -104 78 -216 86 l-87 6 -30 -32z m224 -201 c0 -34 -1 -35 -43 -38
-46 -3 -72 10 -72 37 0 29 23 42 70 39 44 -3 45 -4 45 -38z"/>
<path d="M28736 16515 c-15 -14 -33 -25 -41 -25 -8 0 -21 -13 -30 -30 -9 -16
-20 -30 -25 -30 -5 0 -16 -21 -24 -47 -8 -27 -21 -61 -30 -78 -24 -45 -22
-192 3 -253 11 -26 22 -59 25 -74 4 -15 20 -41 36 -58 17 -17 30 -34 30 -39 0
-10 95 -51 117 -51 9 0 38 8 66 18 36 12 56 26 70 50 10 17 23 32 27 32 22 0
44 140 26 165 -6 9 -33 18 -62 21 l-51 6 -14 -42 c-27 -83 -98 -102 -113 -29
-10 51 -7 259 4 280 22 40 110 16 110 -30 0 -10 9 -26 21 -37 20 -18 21 -18
57 2 20 12 42 32 49 45 26 53 -17 135 -104 198 -55 40 -108 42 -147 6z"/>
<path d="M29113 16518 c-42 -46 -43 -58 -43 -346 l0 -280 35 -31 c35 -31 36
-31 72 -16 20 9 39 18 42 21 4 3 8 57 11 119 3 62 8 117 13 121 4 4 23 0 42
-9 l35 -17 0 -96 c0 -93 1 -96 30 -126 25 -24 36 -29 58 -23 64 16 63 6 60
353 l-3 315 -27 20 c-23 17 -33 19 -55 11 -46 -16 -64 -65 -61 -164 l3 -85
-50 0 -50 0 3 82 c5 97 -9 146 -44 162 -36 16 -48 14 -71 -11z"/>
<path d="M19683 16519 c-52 -19 -54 -35 -54 -344 0 -299 0 -303 44 -327 11 -6
78 -11 150 -11 l130 0 25 28 c20 24 23 35 18 69 -10 62 -24 71 -126 74 l-90 4
0 231 c0 128 -4 237 -8 243 -14 22 -66 42 -89 33z"/>
</g>
</svg>
